<?xml version="1.0" standalone="no"?>
<!DOCTYPE svg PUBLIC "-//W3C//DTD SVG 20010904//EN"
 "http://www.w3.org/TR/2001/REC-SVG-20010904/DTD/svg10.dtd">
<svg version="1.0" xmlns="http://www.w3.org/2000/svg"
 width="1024.000000pt" height="1024.000000pt" viewBox="0 0 1024.000000 1024.000000"
 preserveAspectRatio="xMidYMid meet">

<g transform="translate(0.000000,1024.000000) scale(0.100000,-0.100000)"
fill="#11354d" stroke="none">
<path d="M2802 9619 c-155 -18 -310 -64 -603 -178 -210 -82 -320 -111 -449
-118 -79 -4 -120 -1 -165 10 -32 9 -60 15 -62 13 -2 -1 10 -23 27 -49 52 -82
174 -152 288 -164 28 -3 52 -9 52 -13 0 -14 -203 -21 -275 -11 -104 15 -239
66 -287 109 -17 14 -18 13 -18 -10 0 -75 78 -244 159 -344 78 -96 171 -160
321 -221 22 -9 16 -11 -44 -18 -106 -12 -284 8 -368 40 -17 7 -18 -78 -18
-1689 l0 -1696 1045 0 1045 0 0 -1080 0 -1080 1000 0 1000 0 0 -1120 0 -1120
1923 2 1922 3 3 1908 2 1907 -343 0 -343 0 -46 83 c-56 99 -123 234 -132 264
-7 21 -3 20 49 -12 163 -98 355 -109 550 -34 l60 24 -70 5 c-221 19 -418 165
-534 397 -65 129 -104 259 -189 618 -57 239 -99 378 -147 482 -99 215 -253
371 -440 448 -31 12 -73 39 -93 58 -166 159 -430 294 -685 349 -142 30 -389
31 -527 0 -303 -66 -560 -222 -791 -479 l-64 -71 -232 -1 -233 -1 0 523 c0
287 -5 598 -10 690 -24 383 -86 578 -237 737 -101 107 -234 181 -379 211 l-61
12 -17 76 c-52 222 -183 373 -385 442 -74 26 -78 24 -41 -18 37 -42 58 -86 76
-161 l12 -53 -58 54 c-154 143 -389 250 -615 281 l-50 7 45 -29 c25 -16 56
-42 70 -57 l25 -27 -42 21 c-144 72 -401 105 -621 80z m778 -919 c47 -6 123
-20 170 -31 l85 -19 0 -208 c0 -166 4 -223 19 -287 21 -94 66 -206 114 -289
98 -167 134 -299 136 -489 l1 -128 79 3 80 3 13 74 c36 197 182 329 350 319
89 -6 147 -55 173 -147 6 -21 10 -172 10 -353 l0 -318 -592 -2 c-326 0 -597
-2 -603 -3 -5 -2 -45 -3 -87 -4 l-78 -1 0 -630 0 -630 -906 0 -907 0 6 128 c4
70 7 616 8 1215 0 598 3 1087 7 1087 4 0 14 -20 21 -44 14 -50 94 -183 142
-236 28 -32 30 -33 24 -10 -14 52 -17 274 -5 364 14 103 48 227 83 308 l24 55
119 6 c183 10 348 43 629 127 248 75 470 128 590 143 65 8 215 6 295 -3z
m3907 -2042 c-14 -252 -118 -441 -391 -713 -132 -131 -197 -186 -361 -305
-272 -198 -397 -301 -550 -455 -245 -246 -423 -495 -499 -697 -14 -37 -51
-102 -81 -145 -70 -96 -119 -197 -142 -288 -15 -60 -17 -113 -15 -362 l2 -293
-860 0 -860 0 0 938 0 939 353 6 c394 8 429 12 562 77 148 71 283 208 359 365
70 144 86 251 86 598 l0 227 176 0 176 0 -6 -35 c-4 -20 -22 -75 -41 -123 -70
-182 -95 -323 -102 -569 -6 -207 5 -352 38 -518 21 -106 68 -274 79 -288 4 -4
10 18 14 49 9 76 55 213 107 316 129 257 356 489 654 670 104 63 295 166 280
151 -5 -6 -73 -66 -150 -134 -346 -306 -532 -522 -664 -770 -137 -258 -195
-518 -171 -763 6 -60 15 -116 20 -125 8 -13 9 -12 10 8 0 42 60 204 119 321
110 220 230 392 393 567 170 182 287 280 633 533 339 247 493 381 617 535 76
95 153 223 186 312 15 40 29 73 31 73 2 0 1 -46 -2 -102z m-2685 -375 c-1
-147 -7 -295 -13 -328 -24 -133 -146 -289 -271 -348 -84 -40 -158 -47 -485
-47 l-303 0 -2 490 -3 490 155 2 c85 2 328 4 540 6 l385 3 -3 -268z m3052 127
c57 -89 95 -209 108 -344 10 -99 9 -129 -7 -232 -27 -172 -30 -296 -10 -347 9
-22 54 -100 100 -172 102 -159 107 -171 90 -211 -19 -45 -57 -70 -117 -78 -55
-8 -108 -44 -108 -75 0 -8 14 -45 31 -82 35 -76 34 -99 -7 -148 -16 -20 -35
-31 -51 -31 l-25 0 31 -35 c47 -53 44 -60 -58 -146 -31 -27 -31 -27 -31 -129
0 -121 -12 -150 -78 -181 -64 -31 -214 -23 -332 17 l-85 29 -3 676 -2 676 60
52 c212 184 413 536 437 762 3 33 9 59 12 59 3 0 23 -27 45 -60z m-837 -1707
c-2 -2 -190 -2 -418 -1 l-414 3 140 140 c149 150 243 225 518 416 l172 120 3
-337 c1 -185 1 -339 -1 -341z m1251 -153 c27 -41 91 -127 144 -190 218 -266
299 -410 344 -618 23 -104 23 -331 0 -425 -9 -38 -16 -71 -16 -74 0 -11 76
100 109 158 151 269 146 635 -13 937 l-43 82 119 0 120 0 -6 -42 c-3 -24 -5
-757 -5 -1631 l-1 -1587 -1645 2 -1645 3 -5 978 -6 977 353 0 c487 1 639 10
748 46 169 56 322 191 405 356 25 50 45 99 45 109 0 10 3 19 8 19 12 -1 187
-267 236 -360 97 -184 137 -336 137 -526 -1 -242 -67 -425 -232 -637 l-22 -28
39 16 c106 44 276 166 365 262 195 209 298 473 330 840 19 214 3 392 -66 738
-19 97 -35 182 -35 188 1 7 11 -15 24 -48 13 -33 57 -134 99 -225 151 -332
189 -473 190 -700 1 -269 -85 -515 -257 -735 l-31 -40 30 19 c360 226 547 531
562 911 11 261 -30 412 -197 739 -60 116 -123 247 -140 291 -34 85 -103 281
-96 274 3 -2 27 -38 54 -79z m-1248 -447 c0 -337 -4 -373 -50 -463 -53 -106
-148 -187 -250 -213 -42 -11 -164 -15 -525 -18 l-470 -4 0 250 c0 283 4 311
70 451 44 94 91 169 164 262 l41 52 510 0 510 0 0 -317z"/>
</g>
</svg>
